<svg width="49" height="48" viewBox="0 0 49 48" fill="none" xmlns="http://www.w3.org/2000/svg">
<path d="M43.9 20.5999L25.9 4.5999C25.1 3.9999 24.1 3.9999 23.3 4.5999L5.29999 20.5999C4.49999 21.3999 4.29999 22.5999 5.09999 23.3999C5.89999 24.1999 7.09999 24.3999 7.89999 23.5999L8.49999 22.7999V41.9999C8.49999 43.1999 9.29999 43.9999 10.5 43.9999H38.5C39.7 43.9999 40.5 43.1999 40.5 41.9999V22.7999L41.1 23.3999C41.9 24.1999 43.1 23.9999 43.9 23.1999C44.7 22.5999 44.7 21.1999 43.9 20.5999ZM24.5 21.9999C27.5 21.9999 29.9 24.3999 29.9 27.3999C29.9 30.3999 27.5 32.7999 24.5 32.7999C21.5 32.7999 19.1 30.3999 19.1 27.3999C19.1 24.3999 21.5 21.9999 24.5 21.9999ZM14.5 39.9999C14.5 39.7999 14.5 39.7999 14.7 39.5999C19.1 34.1999 27.1 33.1999 32.5 37.5999C33.3 38.1999 33.9 38.7999 34.5 39.5999C34.5 39.5999 34.5 39.7999 34.7 39.9999H14.5Z" fill="#4299E1"/>
</svg>
