<svg width="49" height="48" viewBox="0 0 49 48" fill="none" xmlns="http://www.w3.org/2000/svg">
<path d="M38.5 4L10.5 4C7.1 4 4.5 6.6 4.5 10L4.5 38C4.5 41.4 7.1 44 10.5 44H38.5C41.9 44 44.5 41.4 44.5 38V10C44.5 6.6 41.9 4 38.5 4ZM16.5 34C16.5 35.2 15.7 36 14.5 36C13.3 36 12.5 35.2 12.5 34V26C12.5 24.8 13.3 24 14.5 24C15.7 24 16.5 24.8 16.5 26V34ZM26.5 34C26.5 35.2 25.7 36 24.5 36C23.3 36 22.5 35.2 22.5 34V14C22.5 12.8 23.3 12 24.5 12C25.7 12 26.5 12.8 26.5 14V34ZM36.5 34C36.5 35.2 35.7 36 34.5 36C33.3 36 32.5 35.2 32.5 34V22C32.5 20.8 33.3 20 34.5 20C35.7 20 36.5 20.8 36.5 22V34Z" fill="#4299E1"/>
</svg>
