<svg width="49" height="48" viewBox="0 0 49 48" fill="none" xmlns="http://www.w3.org/2000/svg">
<path d="M45.1 40.8C42.7 38 41.5 34.6 41.5 31V16C41.5 9.4 37.1 4 31.5 4L13.5 4C7.9 4 3.5 9.4 3.5 16C3.5 22.6 7.9 28 13.5 28H19.5V31C19.5 35.6 21.1 40 23.9 43.4C24.3 43.8 24.9 44 25.5 44H43.5C44.7 44 45.5 43.2 45.5 42C45.5 41.6 45.3 41 45.1 40.8ZM13.5 18.4C12.3 18.4 11.3 17.2 11.5 16C11.3 14.8 12.3 13.6 13.5 13.6C14.7 13.8 15.7 14.8 15.5 16C15.7 17.2 14.7 18.4 13.5 18.4ZM26.5 40C24.5 37.4 23.5 34.2 23.5 30.8V16.8V16.6C23.5 16.4 23.5 16 23.5 15.8C23.5 13 22.7 10.2 20.9 7.8L31.5 7.8C34.9 7.8 37.5 11.4 37.5 15.8V30.8C37.5 34 38.3 37.2 39.7 40H26.5Z" fill="#4299E1"/>
</svg>
